<mxfile host="app.diagrams.net" modified="2021-04-28T08:27:35.803Z" agent="5.0 (Windows NT 10.0; Win64; x64) AppleWebKit/537.36 (KHTML, like Gecko) Chrome/90.0.4430.93 Safari/537.36" etag="5HcsUiCAEzZzU5n0c2JG" version="14.6.6" type="github" pages="2">
  <diagram id="QQjb7B1x9FnSJum1Ktwq" name="Actors_ActionsList">
    <mxGraphModel dx="1609" dy="-691" grid="1" gridSize="10" guides="1" tooltips="1" connect="1" arrows="1" fold="1" page="1" pageScale="1" pageWidth="827" pageHeight="1169" math="0" shadow="0">
      <root>
        <mxCell id="0" />
        <mxCell id="1" parent="0" />
        <mxCell id="cV49GLbtdZbuWx6RyrEC-1" value="&lt;br&gt;Customer" style="shape=actor;whiteSpace=wrap;html=1;fontStyle=1" parent="1" vertex="1">
          <mxGeometry x="-750" y="1400" width="40" height="50" as="geometry" />
        </mxCell>
        <mxCell id="cV49GLbtdZbuWx6RyrEC-2" value="&lt;br&gt;Expert" style="shape=actor;whiteSpace=wrap;html=1;fontStyle=1" parent="1" vertex="1">
          <mxGeometry x="-750" y="1570" width="40" height="50" as="geometry" />
        </mxCell>
        <mxCell id="GBkBr9sgOypdlljieGhE-1" value="&lt;br&gt;Manager" style="shape=actor;whiteSpace=wrap;html=1;fontStyle=1" parent="1" vertex="1">
          <mxGeometry x="-750" y="1754" width="40" height="50" as="geometry" />
        </mxCell>
        <mxCell id="GBkBr9sgOypdlljieGhE-2" value="&lt;br&gt;&lt;br&gt;Administrator" style="shape=actor;whiteSpace=wrap;html=1;fontStyle=1" parent="1" vertex="1">
          <mxGeometry x="-750" y="1970" width="40" height="50" as="geometry" />
        </mxCell>
        <mxCell id="EJEmB71T8K7dt9peTRfo-1" value="&lt;ul&gt;&lt;li&gt;Registers for Service&lt;/li&gt;&lt;li&gt;Maintain their profile, plans/contracts, billing information&lt;/li&gt;&lt;li&gt;Creates Problem Tickets&lt;/li&gt;&lt;li&gt;Provide Feedback through surveys&lt;/li&gt;&lt;/ul&gt;" style="text;strokeColor=none;fillColor=none;html=1;whiteSpace=wrap;verticalAlign=middle;overflow=hidden;" parent="1" vertex="1">
          <mxGeometry x="-690" y="1380" width="410" height="80" as="geometry" />
        </mxCell>
        <mxCell id="EJEmB71T8K7dt9peTRfo-2" value="&lt;ul&gt;&lt;li&gt;Work on Assigned tickets and Fix problems&lt;/li&gt;&lt;li&gt;Updates notes on Tickets&lt;/li&gt;&lt;li&gt;Search Knowledge Base&lt;/li&gt;&lt;li&gt;Updates Knowledge Base (? - Directly / Indirectly)&lt;/li&gt;&lt;/ul&gt;" style="text;strokeColor=none;fillColor=none;html=1;whiteSpace=wrap;verticalAlign=middle;overflow=hidden;" parent="1" vertex="1">
          <mxGeometry x="-690" y="1555" width="410" height="80" as="geometry" />
        </mxCell>
        <mxCell id="EJEmB71T8K7dt9peTRfo-3" value="&lt;ul&gt;&lt;li&gt;Manages internal users of the system&lt;/li&gt;&lt;li&gt;Manages list of experts and their details (skill, location and availability)&lt;/li&gt;&lt;li&gt;Billing processing for customers&lt;/li&gt;&lt;li&gt;Static reference data (Products/plans and their costs..etc)&lt;/li&gt;&lt;li&gt;&lt;br&gt;&lt;/li&gt;&lt;/ul&gt;" style="text;strokeColor=none;fillColor=none;html=1;whiteSpace=wrap;verticalAlign=middle;overflow=hidden;" parent="1" vertex="1">
          <mxGeometry x="-690" y="1950" width="410" height="90" as="geometry" />
        </mxCell>
        <mxCell id="EJEmB71T8K7dt9peTRfo-4" value="&lt;ul&gt;&lt;li&gt;Keeps track of problem ticket operations&lt;/li&gt;&lt;li&gt;Receives Operational reports&lt;/li&gt;&lt;li&gt;Receives Analytical reports&lt;/li&gt;&lt;li&gt;&lt;br&gt;&lt;/li&gt;&lt;/ul&gt;" style="text;strokeColor=none;fillColor=none;html=1;whiteSpace=wrap;verticalAlign=middle;overflow=hidden;" parent="1" vertex="1">
          <mxGeometry x="-680" y="1749" width="410" height="80" as="geometry" />
        </mxCell>
        <mxCell id="YfdMjusSYWNKrkRUo4AD-1" value="&lt;br&gt;&lt;br&gt;HelpDeskUser" style="shape=actor;whiteSpace=wrap;html=1;fontStyle=1" vertex="1" parent="1">
          <mxGeometry x="-760" y="2150" width="40" height="50" as="geometry" />
        </mxCell>
        <mxCell id="YfdMjusSYWNKrkRUo4AD-2" value="&lt;ul&gt;&lt;li&gt;Communicate with customers through phone, e-mails&lt;/li&gt;&lt;li&gt;Update tickets&lt;/li&gt;&lt;li&gt;Follow-up tickets with Expert users&lt;/li&gt;&lt;li&gt;&lt;br&gt;&lt;/li&gt;&lt;/ul&gt;" style="text;strokeColor=none;fillColor=none;html=1;whiteSpace=wrap;verticalAlign=middle;overflow=hidden;" vertex="1" parent="1">
          <mxGeometry x="-700" y="2130" width="410" height="90" as="geometry" />
        </mxCell>
      </root>
    </mxGraphModel>
  </diagram>
  <diagram id="8kB-ng7LXTdEH6x8OwXU" name="Ticket_Workflow">
    <mxGraphModel dx="2062" dy="29" grid="1" gridSize="10" guides="1" tooltips="1" connect="1" arrows="1" fold="1" page="1" pageScale="1" pageWidth="827" pageHeight="1169" math="0" shadow="0">
      <root>
        <mxCell id="42mEyLXdNHC8adgHVr76-0" />
        <mxCell id="42mEyLXdNHC8adgHVr76-1" parent="42mEyLXdNHC8adgHVr76-0" />
        <mxCell id="42mEyLXdNHC8adgHVr76-27" value="Start" style="ellipse;whiteSpace=wrap;html=1;" parent="42mEyLXdNHC8adgHVr76-1" vertex="1">
          <mxGeometry x="265" y="1250" width="70" height="43" as="geometry" />
        </mxCell>
        <mxCell id="42mEyLXdNHC8adgHVr76-28" value="Create Ticket" style="rounded=0;whiteSpace=wrap;html=1;" parent="42mEyLXdNHC8adgHVr76-1" vertex="1">
          <mxGeometry x="240" y="1350" width="120" height="60" as="geometry" />
        </mxCell>
        <mxCell id="42mEyLXdNHC8adgHVr76-29" value="Expert Located" style="rounded=0;whiteSpace=wrap;html=1;" parent="42mEyLXdNHC8adgHVr76-1" vertex="1">
          <mxGeometry x="240" y="1456.5" width="120" height="60" as="geometry" />
        </mxCell>
        <mxCell id="42mEyLXdNHC8adgHVr76-30" value="Ticket Assigned" style="rounded=0;whiteSpace=wrap;html=1;" parent="42mEyLXdNHC8adgHVr76-1" vertex="1">
          <mxGeometry x="240" y="1556" width="120" height="60" as="geometry" />
        </mxCell>
        <mxCell id="42mEyLXdNHC8adgHVr76-31" value="" style="endArrow=classic;html=1;entryX=0.5;entryY=0;entryDx=0;entryDy=0;" parent="42mEyLXdNHC8adgHVr76-1" source="42mEyLXdNHC8adgHVr76-28" target="42mEyLXdNHC8adgHVr76-29" edge="1">
          <mxGeometry width="50" height="50" relative="1" as="geometry">
            <mxPoint x="690" y="13" as="sourcePoint" />
            <mxPoint x="740" y="-37" as="targetPoint" />
          </mxGeometry>
        </mxCell>
        <mxCell id="42mEyLXdNHC8adgHVr76-32" value="" style="endArrow=classic;html=1;entryX=0.5;entryY=0;entryDx=0;entryDy=0;exitX=0.5;exitY=1;exitDx=0;exitDy=0;" parent="42mEyLXdNHC8adgHVr76-1" source="42mEyLXdNHC8adgHVr76-27" target="42mEyLXdNHC8adgHVr76-28" edge="1">
          <mxGeometry width="50" height="50" relative="1" as="geometry">
            <mxPoint x="-25" y="1540" as="sourcePoint" />
            <mxPoint x="25" y="1490" as="targetPoint" />
          </mxGeometry>
        </mxCell>
        <mxCell id="42mEyLXdNHC8adgHVr76-38" style="edgeStyle=orthogonalEdgeStyle;rounded=0;orthogonalLoop=1;jettySize=auto;html=1;exitX=0.5;exitY=1;exitDx=0;exitDy=0;" parent="42mEyLXdNHC8adgHVr76-1" source="42mEyLXdNHC8adgHVr76-34" target="42mEyLXdNHC8adgHVr76-37" edge="1">
          <mxGeometry relative="1" as="geometry">
            <mxPoint x="505" y="1670" as="targetPoint" />
          </mxGeometry>
        </mxCell>
        <mxCell id="42mEyLXdNHC8adgHVr76-34" value="Push Ticket Info,&lt;br&gt;Notify Expert" style="rounded=0;whiteSpace=wrap;html=1;" parent="42mEyLXdNHC8adgHVr76-1" vertex="1">
          <mxGeometry x="240" y="1646" width="120" height="60" as="geometry" />
        </mxCell>
        <mxCell id="42mEyLXdNHC8adgHVr76-35" value="" style="endArrow=classic;html=1;entryX=0.5;entryY=0;entryDx=0;entryDy=0;" parent="42mEyLXdNHC8adgHVr76-1" source="42mEyLXdNHC8adgHVr76-29" target="42mEyLXdNHC8adgHVr76-30" edge="1">
          <mxGeometry width="50" height="50" relative="1" as="geometry">
            <mxPoint x="225" y="1880" as="sourcePoint" />
            <mxPoint x="275" y="1830" as="targetPoint" />
          </mxGeometry>
        </mxCell>
        <mxCell id="42mEyLXdNHC8adgHVr76-36" value="" style="endArrow=classic;html=1;exitX=0.5;exitY=1;exitDx=0;exitDy=0;" parent="42mEyLXdNHC8adgHVr76-1" source="42mEyLXdNHC8adgHVr76-30" target="42mEyLXdNHC8adgHVr76-34" edge="1">
          <mxGeometry width="50" height="50" relative="1" as="geometry">
            <mxPoint x="75" y="1870" as="sourcePoint" />
            <mxPoint x="125" y="1820" as="targetPoint" />
          </mxGeometry>
        </mxCell>
        <mxCell id="42mEyLXdNHC8adgHVr76-37" value="Notify Customer" style="rounded=0;whiteSpace=wrap;html=1;" parent="42mEyLXdNHC8adgHVr76-1" vertex="1">
          <mxGeometry x="240" y="1750" width="120" height="60" as="geometry" />
        </mxCell>
        <mxCell id="42mEyLXdNHC8adgHVr76-39" value="Push Notifications to&amp;nbsp; Customer" style="rounded=0;whiteSpace=wrap;html=1;" parent="42mEyLXdNHC8adgHVr76-1" vertex="1">
          <mxGeometry x="240" y="1850" width="120" height="60" as="geometry" />
        </mxCell>
        <mxCell id="42mEyLXdNHC8adgHVr76-40" value="Update/Closure of Ticket by Expert" style="rounded=0;whiteSpace=wrap;html=1;" parent="42mEyLXdNHC8adgHVr76-1" vertex="1">
          <mxGeometry x="240" y="1947" width="120" height="60" as="geometry" />
        </mxCell>
        <mxCell id="42mEyLXdNHC8adgHVr76-49" value="" style="edgeStyle=none;rounded=0;orthogonalLoop=1;jettySize=auto;html=1;" parent="42mEyLXdNHC8adgHVr76-1" source="42mEyLXdNHC8adgHVr76-41" target="42mEyLXdNHC8adgHVr76-42" edge="1">
          <mxGeometry relative="1" as="geometry" />
        </mxCell>
        <mxCell id="42mEyLXdNHC8adgHVr76-41" value="Closure Survey to Customer" style="rounded=0;whiteSpace=wrap;html=1;" parent="42mEyLXdNHC8adgHVr76-1" vertex="1">
          <mxGeometry x="240" y="2040" width="120" height="60" as="geometry" />
        </mxCell>
        <mxCell id="42mEyLXdNHC8adgHVr76-42" value="Customer feedback through Survey" style="rounded=0;whiteSpace=wrap;html=1;" parent="42mEyLXdNHC8adgHVr76-1" vertex="1">
          <mxGeometry x="240" y="2130" width="120" height="60" as="geometry" />
        </mxCell>
        <mxCell id="42mEyLXdNHC8adgHVr76-43" value="End" style="ellipse;whiteSpace=wrap;html=1;" parent="42mEyLXdNHC8adgHVr76-1" vertex="1">
          <mxGeometry x="265" y="2230" width="70" height="43" as="geometry" />
        </mxCell>
        <mxCell id="42mEyLXdNHC8adgHVr76-44" value="Update to Knowledge base" style="rounded=0;whiteSpace=wrap;html=1;" parent="42mEyLXdNHC8adgHVr76-1" vertex="1">
          <mxGeometry x="420" y="1947" width="120" height="60" as="geometry" />
        </mxCell>
        <mxCell id="42mEyLXdNHC8adgHVr76-45" value="" style="endArrow=classic;html=1;entryX=0.5;entryY=0;entryDx=0;entryDy=0;exitX=0.5;exitY=1;exitDx=0;exitDy=0;" parent="42mEyLXdNHC8adgHVr76-1" source="42mEyLXdNHC8adgHVr76-37" target="42mEyLXdNHC8adgHVr76-39" edge="1">
          <mxGeometry width="50" height="50" relative="1" as="geometry">
            <mxPoint x="120" y="1850" as="sourcePoint" />
            <mxPoint x="170" y="1800" as="targetPoint" />
          </mxGeometry>
        </mxCell>
        <mxCell id="42mEyLXdNHC8adgHVr76-46" value="" style="endArrow=classic;html=1;entryX=0.5;entryY=0;entryDx=0;entryDy=0;exitX=0.5;exitY=1;exitDx=0;exitDy=0;" parent="42mEyLXdNHC8adgHVr76-1" edge="1">
          <mxGeometry width="50" height="50" relative="1" as="geometry">
            <mxPoint x="299.5" y="1910" as="sourcePoint" />
            <mxPoint x="299.5" y="1950" as="targetPoint" />
          </mxGeometry>
        </mxCell>
        <mxCell id="42mEyLXdNHC8adgHVr76-47" value="" style="endArrow=classic;html=1;" parent="42mEyLXdNHC8adgHVr76-1" source="42mEyLXdNHC8adgHVr76-41" target="42mEyLXdNHC8adgHVr76-42" edge="1">
          <mxGeometry width="50" height="50" relative="1" as="geometry">
            <mxPoint x="320" y="1830" as="sourcePoint" />
            <mxPoint x="320" y="1870" as="targetPoint" />
          </mxGeometry>
        </mxCell>
        <mxCell id="42mEyLXdNHC8adgHVr76-48" value="" style="endArrow=classic;html=1;exitX=0.5;exitY=1;exitDx=0;exitDy=0;" parent="42mEyLXdNHC8adgHVr76-1" source="42mEyLXdNHC8adgHVr76-40" edge="1">
          <mxGeometry width="50" height="50" relative="1" as="geometry">
            <mxPoint x="310" y="2110" as="sourcePoint" />
            <mxPoint x="300" y="2040" as="targetPoint" />
          </mxGeometry>
        </mxCell>
        <mxCell id="42mEyLXdNHC8adgHVr76-50" value="" style="endArrow=classic;html=1;exitX=0.5;exitY=1;exitDx=0;exitDy=0;entryX=0.5;entryY=0;entryDx=0;entryDy=0;" parent="42mEyLXdNHC8adgHVr76-1" source="42mEyLXdNHC8adgHVr76-42" target="42mEyLXdNHC8adgHVr76-43" edge="1">
          <mxGeometry width="50" height="50" relative="1" as="geometry">
            <mxPoint x="320" y="2120" as="sourcePoint" />
            <mxPoint x="320" y="2150" as="targetPoint" />
          </mxGeometry>
        </mxCell>
        <mxCell id="42mEyLXdNHC8adgHVr76-51" value="" style="endArrow=classic;html=1;entryX=0;entryY=0.5;entryDx=0;entryDy=0;" parent="42mEyLXdNHC8adgHVr76-1" source="42mEyLXdNHC8adgHVr76-40" target="42mEyLXdNHC8adgHVr76-44" edge="1">
          <mxGeometry width="50" height="50" relative="1" as="geometry">
            <mxPoint x="310" y="2017" as="sourcePoint" />
            <mxPoint x="310" y="2050" as="targetPoint" />
          </mxGeometry>
        </mxCell>
        <mxCell id="42mEyLXdNHC8adgHVr76-52" value="Ticket Workflow" style="text;strokeColor=none;fillColor=none;html=1;fontSize=24;fontStyle=1;verticalAlign=middle;align=center;" parent="42mEyLXdNHC8adgHVr76-1" vertex="1">
          <mxGeometry x="390" y="1180" width="100" height="40" as="geometry" />
        </mxCell>
      </root>
    </mxGraphModel>
  </diagram>
</mxfile>
